%
M48
M72
T01C0.0236
T02C0.0276
T03C0.0315
T04C0.0320
T05C0.0354
T06C0.0360
T07C0.0394
T08C0.0400
T09C0.0433
T10C0.0440
T11C0.0500
T12C0.0591
T13C0.0630
T14C0.0787
T15C0.0827
T16C0.0984
T17C0.1102
T18C0.1150
T19C0.1260
%
T01
X28000Y31750
X16000Y23750
T02
X57825Y22165
X59500Y22165
X61175Y22165
X61175Y27335
X59500Y27335
X57825Y27335
X49675Y22165
X48000Y22165
X46325Y22165
X46325Y27335
X48000Y27335
X49675Y27335
T03
X3650Y13673
X4650Y13673
X5650Y13673
X6650Y13673
X7650Y13673
X8650Y13673
X9650Y13673
X10650Y13673
X11650Y13673
X12650Y13673
X13650Y13673
X14650Y13673
X15650Y13673
X16650Y13673
X17650Y13673
X18650Y13673
X23000Y36250
T04
X72500Y12250
X71500Y11250
X73500Y11250
X74750Y7750
X74750Y3750
X73000Y3750
X72000Y3750
X4000Y20250
X3000Y20250
X2000Y20250
X4000Y24250
X3000Y24250
X2000Y24250
X1500Y25250
X3000Y25250
X4000Y25250
X1500Y26250
X2500Y27250
X2500Y28250
X2500Y29250
X2500Y30250
X1500Y30250
X1500Y29250
X1500Y28250
X1500Y31250
X2500Y31250
X2500Y32250
X2500Y33250
X2500Y34250
X2500Y35250
X1500Y34250
X1500Y33250
X5500Y36250
X6500Y36250
X7500Y36250
X7500Y37250
X6500Y37250
X6500Y38250
X7500Y38250
X7500Y39250
X6500Y39250
X6500Y40250
X2500Y40250
X2500Y39250
X2500Y38250
X1500Y38250
X1500Y39250
X2500Y37250
X6500Y35250
X7500Y35250
X7500Y34250
X6500Y34250
X6500Y33250
X7500Y33250
X6500Y32250
X6500Y31250
X6500Y30250
X7500Y30250
X7500Y29250
X6500Y29250
X6500Y28250
X7500Y28250
X7500Y27250
X6500Y27250
X10500Y27250
X10500Y28250
X10500Y29250
X10500Y30250
X10500Y31250
X9500Y31250
X10500Y33250
X10500Y34250
X11500Y34250
X12500Y34250
X13500Y34250
X14500Y34250
X15500Y33250
X16500Y33250
X17500Y33250
X18500Y33250
X19500Y33250
X20500Y33250
X21500Y33250
X21500Y34250
X22500Y34250
X23500Y34250
X24500Y34250
X24500Y33250
X23500Y33250
X22500Y33250
X25500Y33250
X26500Y33250
X27500Y33250
X28500Y33250
X29500Y33250
X30500Y33250
X31500Y33250
X32500Y33250
X33500Y33250
X34500Y33250
X34500Y34250
X33500Y34250
X33500Y35250
X32500Y35250
X34500Y35250
X35500Y35250
X36500Y35250
X37500Y35250
X38500Y35250
X39500Y35250
X40500Y35250
X41500Y35250
X42500Y35250
X45000Y35250
X46000Y35250
X46000Y34250
X45000Y34250
X48000Y34250
X49000Y34250
X51000Y34250
X52000Y34250
X52000Y35250
X51000Y35250
X56500Y35250
X57500Y35250
X57500Y34250
X56500Y34250
X59500Y34250
X60500Y34250
X61500Y34250
X62500Y34250
X62500Y35250
X61500Y35250
X63500Y35750
X63500Y36750
X61950Y38250
X60550Y38250
X58500Y38250
X57500Y38250
X56500Y38250
X56500Y37250
X54450Y38250
X53050Y38250
X51000Y38250
X50000Y38250
X49000Y38250
X48000Y38250
X46750Y39250
X45750Y39250
X44500Y38250
X43500Y38250
X42500Y38250
X41500Y38250
X35500Y38250
X34500Y38250
X33500Y38250
X32500Y38250
X31500Y38250
X27500Y38250
X23950Y36250
X22050Y36250
X20000Y37750
X19000Y37750
X18500Y39250
X19500Y39250
X20500Y39250
X21500Y39250
X17500Y39250
X16500Y39250
X15500Y39250
X14500Y38250
X13500Y38250
X12500Y38250
X11500Y38250
X10500Y38250
X10500Y39250
X11500Y39250
X11500Y37250
X10500Y37250
X10500Y36250
X11500Y36250
X11500Y35250
X10500Y35250
X15500Y35250
X15500Y36250
X15500Y37250
X15500Y27250
X16500Y27250
X17500Y27250
X18500Y27250
X19500Y27250
X20500Y27250
X21500Y27250
X22500Y27250
X23500Y27250
X24500Y27250
X25500Y27250
X26500Y27250
X26500Y26250
X25500Y26250
X24500Y26250
X27500Y26250
X27500Y27250
X28500Y27250
X29500Y27250
X30500Y27250
X31500Y27250
X32500Y27250
X33500Y27250
X34500Y27250
X34500Y26250
X33500Y26250
X32500Y26250
X31500Y26250
X35500Y26250
X36500Y26250
X37500Y26250
X38500Y26250
X38500Y27250
X39500Y27250
X40500Y27250
X41500Y27250
X41500Y26250
X40500Y26250
X39500Y26250
X42500Y26250
X43500Y27250
X43500Y28250
X42500Y30250
X41500Y30250
X40500Y30250
X39500Y30250
X38500Y30250
X38500Y31250
X37500Y31250
X36500Y31250
X39500Y31250
X40500Y31250
X41500Y31250
X42500Y31250
X41500Y22250
X40500Y22250
X39500Y22250
X38500Y22250
X37500Y22250
X36500Y22250
X35500Y22250
X34500Y22250
X33500Y22250
X32500Y22250
X31500Y22250
X31500Y20250
X32500Y20250
X34500Y19250
X35500Y19250
X36500Y19250
X37500Y19250
X38500Y19250
X38500Y20250
X37500Y20250
X36500Y20250
X35500Y20250
X39500Y20250
X40500Y20250
X41500Y20250
X42500Y20250
X41500Y19250
X40500Y19250
X39500Y19250
X42500Y17250
X42500Y16250
X41500Y16250
X40500Y16250
X39500Y16250
X38500Y16250
X37500Y16250
X36500Y16250
X35500Y16250
X34500Y16250
X32500Y16250
X31500Y16250
X16750Y20250
X15750Y20250
X14500Y20250
X13500Y20250
X11500Y20250
X10500Y20250
X15750Y16250
X16750Y16250
X46750Y7750
X47750Y7750
X52250Y7750
X52250Y6750
X52250Y5750
X52250Y4750
X52250Y3750
X52250Y2750
X52250Y1750
X51250Y1750
X50250Y1750
X50500Y3750
X49500Y3750
X47750Y3750
X46750Y3750
X55250Y3750
X55250Y4750
X55250Y5750
X55250Y6750
X55250Y7750
X59750Y7750
X60750Y7750
X61750Y7750
X61250Y8500
X60750Y9250
X61750Y9250
X62750Y7750
X61750Y11250
X61250Y12000
X60750Y11250
X65669Y25750
X67669Y25750
X67000Y27250
X67000Y31250
X67500Y35750
X67500Y36750
X67500Y37750
X67500Y38750
X67500Y39750
X68500Y39750
X14500Y25250
X14500Y24250
X13500Y24250
X13500Y25250
X11500Y25250
X10500Y25250
X10500Y24250
X11500Y24250
X55250Y2750
X55250Y1750
X57000Y3750
X58000Y3750
X59750Y3750
X60750Y3750
X61750Y3750
X62750Y3750
X64500Y3750
X65500Y3750
T05
X66669Y25750
T06
X46500Y19000
X46500Y20000
X54000Y19000
X54000Y20000
X9000Y21250
X8000Y21250
X7000Y21250
X6000Y21250
X49000Y36500
X48000Y36500
X44500Y36500
X43500Y36500
T07
X65016Y18203
X66984Y19502
X65016Y20683
X53750Y29250
X53750Y34250
X29500Y36250
X28500Y36250
X27500Y36250
X27500Y35250
X28500Y35250
X29500Y35250
X28500Y24250
X27500Y24250
X26500Y24250
X25500Y24250
X24500Y24250
X23500Y24250
X22500Y24250
X21500Y24250
X20500Y24250
X19500Y24250
X18500Y24250
X17500Y24250
X17500Y23250
X18500Y23250
X19500Y23250
X20500Y23250
X21500Y23250
X22500Y23250
X23500Y23250
X24500Y23250
X25500Y23250
X26500Y23250
X27500Y23250
X28500Y23250
X17500Y7250
X17500Y8250
X18500Y8250
X19500Y8250
X20500Y8250
X21500Y8250
X21500Y7250
X20500Y7250
X19500Y7250
X18500Y7250
X22500Y7250
X23500Y7250
X24500Y7250
X25500Y7250
X26500Y7250
X26500Y8250
X25500Y8250
X24500Y8250
X23500Y8250
X22500Y8250
X27500Y8250
X28500Y8250
X28500Y7250
X27500Y7250
T08
X45000Y30250
X45000Y31250
X45000Y32250
X48000Y32250
X48000Y31250
X48000Y30250
X51000Y30250
X51000Y31250
X51000Y32250
X56500Y32250
X56500Y31250
X56500Y30250
X59500Y30250
X59500Y31250
X59500Y32250
X62500Y32250
X62500Y31250
X62500Y30250
X71000Y37750
X73000Y37750
X66339Y38164
X65000Y38164
X63661Y38164
X64331Y39739
X65669Y39739
X58500Y39750
X57500Y39750
X56500Y39750
X51000Y39750
X50000Y39750
X49000Y39750
X43500Y39750
X42500Y39750
X41500Y39750
X71000Y28750
X73000Y28750
T09
X65984Y8494
X65000Y8494
X64016Y8494
X64016Y7494
X65000Y7494
X65984Y7494
X58484Y8494
X57500Y8494
X56516Y8494
X50984Y8494
X50000Y8494
X49016Y8494
T10
X43500Y12250
X41500Y12250
X41500Y10250
X43500Y10250
X36000Y10250
X34000Y10250
X34000Y12250
X36000Y12250
X68500Y27250
X68500Y31250
X68500Y33750
X68500Y37750
X43500Y4750
X41500Y4750
X41500Y2750
X43500Y2750
X36000Y2750
X34000Y2750
X34000Y4750
X36000Y4750
T11
X70250Y33250
X72975Y33540
T12
X59508Y16313
X57539Y16313
X55571Y16313
X55531Y18281
X56594Y18281
X57539Y18281
X58484Y18281
X59547Y18281
X52047Y18281
X50984Y18281
X50039Y18281
X49094Y18281
X48031Y18281
X48071Y16313
X50039Y16313
X52008Y16313
X3071Y16313
X5039Y16313
X7008Y16313
X7047Y18281
X5984Y18281
X5039Y18281
X4094Y18281
X3031Y18281
X10531Y18281
X11594Y18281
X12539Y18281
X13484Y18281
X14547Y18281
X18031Y18281
X19094Y18281
X20039Y18281
X20984Y18281
X22047Y18281
X25531Y18281
X26594Y18281
X27539Y18281
X28484Y18281
X29547Y18281
X29508Y16313
X27539Y16313
X25571Y16313
X22008Y16313
X20039Y16313
X18071Y16313
X14508Y16313
X12539Y16313
X10571Y16313
T13
X73500Y16250
X71500Y16250
X72500Y21250
X72500Y23250
X72500Y25250
T14
X56545Y24750
X50945Y24750
X45045Y24750
X62455Y24750
X67000Y33250
X64500Y33250
T15
X66772Y11250
X63228Y11250
X59272Y11250
X55728Y11250
X51772Y11250
X48228Y11250
T16
X74500Y13750
X74500Y1500
T17
X1500Y1500
X1500Y13673
X30996Y13673
X30996Y1500
T18
X54600Y24750
X52900Y24750
X43100Y24750
X64400Y24750
T19
X6750Y24000
X69250Y24000
X38000Y39750
M30
